<!DOCTYPE svg PUBLIC "-//W3C//DTD SVG 1.1//EN" "http://www.w3.org/Graphics/SVG/1.1/DTD/svg11.dtd">
<!-- Uploaded to: SVG Repo, www.svgrepo.com, Transformed by: SVG Repo Mixer Tools -->
<svg height="800px" width="800px" version="1.1" id="Layer_1" xmlns="http://www.w3.org/2000/svg" xmlns:xlink="http://www.w3.org/1999/xlink" viewBox="0 0 503.467 503.467" xml:space="preserve" fill="#000000">
<g id="SVGRepo_bgCarrier" stroke-width="0"/>
<g id="SVGRepo_tracerCarrier" stroke-linecap="round" stroke-linejoin="round"/>
<g id="SVGRepo_iconCarrier"> <g transform="translate(1 1)"> <path style="fill:#AAB1BA;" d="M139.8,105.667v324.267H37.4c18.773,0,34.133-15.36,34.133-34.133V105.667 c0-18.773,15.36-34.133,34.133-34.133S139.8,86.893,139.8,105.667"/> <polygon style="fill:#a3f9ff;" points="395.8,199.533 395.8,293.4 336.067,293.4 336.067,242.2 301.933,242.2 301.933,293.4 242.2,293.4 242.2,199.533 319,122.733 "/> <g> <path style="fill:#ECF4F7;" d="M395.8,199.533l-76.8-76.8l-76.8,76.8V293.4h59.733v-51.2h34.133v51.2H395.8V199.533z M498.2,105.667v256h-0.853c-1.707-3.413-3.413-6.827-6.827-9.387l-17.067-17.067c-10.24-10.24-23.893-10.24-34.133,0 l-17.067,17.067l-86.187,86.187L327.533,447v51.2H139.8v-68.267V105.667c0-18.773-15.36-34.133-34.133-34.133h256h102.4 C482.84,71.533,498.2,86.893,498.2,105.667L498.2,105.667z"/> <path style="fill:#ECF4F7;" d="M496.493,361.667c3.413,8.533,0.853,17.067-6.827,24.747L472.6,403.48l-25.6-25.6l-25.6-25.6 l17.067-17.067c10.24-10.24,23.893-10.24,34.133,0l17.067,17.067C493.933,354.84,495.64,358.253,496.493,361.667z M387.267,489.667l-8.533,8.533h-51.2V447l8.533-8.533l25.6,25.6L387.267,489.667z"/> </g> <path style="fill:#80D6FA;" d="M473.453,403.48l-86.187,86.187l-25.6-25.6l86.187-86.187L473.453,403.48z M447.853,377.88 l-86.187,86.187l-25.6-25.6l86.187-86.187L447.853,377.88z"/> <path style="fill:#AAB1BA;" d="M361.667,3.267v68.267h-256c-18.773,0-34.133,15.36-34.133,34.133V395.8 c0,18.773-15.36,34.133-34.133,34.133S3.267,414.573,3.267,395.8V3.267H361.667z"/> </g> <path style="fill:#51565F;" d="M379.733,503.467h-51.2c-2.56,0-4.267-1.707-4.267-4.267V448c0-0.853,0.853-2.56,0.853-3.413 L436.907,332.8c5.973-5.973,12.8-8.533,19.627-8.533c7.68,0,14.507,3.413,20.48,8.533l17.067,17.067 c5.973,5.973,8.533,12.8,8.533,20.48c0,7.68-3.413,14.507-8.533,19.627L382.293,501.76 C382.293,502.613,380.587,503.467,379.733,503.467z M332.8,494.933h45.227l4.267-4.267l-45.227-45.227l-4.267,4.267V494.933z M368.64,465.067l19.627,19.627l80.213-80.213l-19.627-19.627L368.64,465.067z M343.04,439.467l19.627,19.627l80.213-80.213 l-19.627-19.627L343.04,439.467z M429.227,353.28l45.227,45.227l13.653-13.653c8.533-8.533,8.533-19.627,0-28.16l-17.067-17.067 c-4.267-4.267-9.387-6.827-13.653-6.827l0,0c-5.12,0-10.24,2.56-13.653,6.827L429.227,353.28z M294.4,503.467H140.8 c-2.56,0-4.267-1.707-4.267-4.267v-64H89.6c-2.56,0-4.267-1.707-4.267-4.267c0-2.56,1.707-4.267,4.267-4.267h46.933v-320 c0-16.213-13.653-29.867-29.867-29.867S76.8,90.453,76.8,106.667V396.8c0,21.333-17.067,38.4-38.4,38.4S0,418.133,0,396.8V4.267 C0,1.707,1.707,0,4.267,0h358.4c2.56,0,4.267,1.707,4.267,4.267V38.4c0,2.56-1.707,4.267-4.267,4.267S358.4,40.96,358.4,38.4V8.533 H8.533V396.8c0,16.213,13.653,29.867,29.867,29.867s29.867-13.653,29.867-29.867V106.667c0-21.333,17.067-38.4,38.4-38.4 s38.4,17.067,38.4,38.4v388.267H294.4c2.56,0,4.267,1.707,4.267,4.267C298.667,501.76,296.96,503.467,294.4,503.467z M328.533,401.067H209.067c-2.56,0-4.267-1.707-4.267-4.267s1.707-4.267,4.267-4.267h119.467c2.56,0,4.267,1.707,4.267,4.267 S331.093,401.067,328.533,401.067z M379.733,349.867h-51.2c-2.56,0-4.267-1.707-4.267-4.267c0-2.56,1.707-4.267,4.267-4.267h51.2 c2.56,0,4.267,1.707,4.267,4.267C384,348.16,382.293,349.867,379.733,349.867z M294.4,349.867h-85.333 c-2.56,0-4.267-1.707-4.267-4.267c0-2.56,1.707-4.267,4.267-4.267H294.4c2.56,0,4.267,1.707,4.267,4.267 C298.667,348.16,296.96,349.867,294.4,349.867z M499.2,315.733c-2.56,0-4.267-1.707-4.267-4.267v-204.8 c0-16.213-13.653-29.867-29.867-29.867H166.4c-2.56,0-4.267-1.707-4.267-4.267c0-2.56,1.707-4.267,4.267-4.267h298.667 c21.333,0,38.4,17.067,38.4,38.4v204.8C503.467,314.027,501.76,315.733,499.2,315.733z M396.8,298.667h-59.733 c-2.56,0-4.267-1.707-4.267-4.267v-46.933h-25.6V294.4c0,2.56-1.707,4.267-4.267,4.267H243.2c-2.56,0-4.267-1.707-4.267-4.267 v-83.627l-9.387,9.387c-1.707,1.707-4.267,1.707-5.973,0s-1.707-4.267,0-5.973l93.867-93.867c1.707-1.707,4.267-1.707,5.973,0 l76.8,76.8l0,0l17.067,17.067c1.707,1.707,1.707,4.267,0,5.973s-4.267,1.707-5.973,0l-9.387-9.387V294.4 C401.067,296.96,399.36,298.667,396.8,298.667z M341.333,290.133h51.2V202.24L320,129.707l-72.533,72.533v87.893h51.2V243.2 c0-2.56,1.707-4.267,4.267-4.267h34.133c2.56,0,4.267,1.707,4.267,4.267V290.133z"/> </g>
</svg>