<!DOCTYPE svg PUBLIC "-//W3C//DTD SVG 1.1//EN" "http://www.w3.org/Graphics/SVG/1.1/DTD/svg11.dtd">
<!-- Uploaded to: SVG Repo, www.svgrepo.com, Transformed by: SVG Repo Mixer Tools -->
<svg version="1.1" id="Layer_1" xmlns="http://www.w3.org/2000/svg" xmlns:xlink="http://www.w3.org/1999/xlink" viewBox="0 0 512 512" xml:space="preserve" width="800px" height="800px" fill="#000000">
<g id="SVGRepo_bgCarrier" stroke-width="0"/>
<g id="SVGRepo_tracerCarrier" stroke-linecap="round" stroke-linejoin="round"/>
<g id="SVGRepo_iconCarrier"> <path style="fill:#AFB9D2;" d="M300.138,512H141.241V79.448c0-4.875,3.953-8.828,8.828-8.828h150.069V512z"/> <g> <path style="fill:#00AAF0;" d="M247.172,203.034c-4.879,0-8.828-3.953-8.828-8.828v-26.483c0-4.875,3.948-8.828,8.828-8.828 c4.879,0,8.828,3.953,8.828,8.828v26.483C256,199.082,252.052,203.034,247.172,203.034z"/> <path style="fill:#00AAF0;" d="M247.172,141.241c-4.879,0-8.828-3.953-8.828-8.828v-26.483c0-4.875,3.948-8.828,8.828-8.828 c4.879,0,8.828,3.953,8.828,8.828v26.483C256,137.289,252.052,141.241,247.172,141.241z"/> <path style="fill:#00AAF0;" d="M211.862,203.034c-4.879,0-8.828-3.953-8.828-8.828v-26.483c0-4.875,3.948-8.828,8.828-8.828 c4.879,0,8.828,3.953,8.828,8.828v26.483C220.69,199.082,216.742,203.034,211.862,203.034z"/> <path style="fill:#00AAF0;" d="M211.862,141.241c-4.879,0-8.828-3.953-8.828-8.828v-26.483c0-4.875,3.948-8.828,8.828-8.828 c4.879,0,8.828,3.953,8.828,8.828v26.483C220.69,137.289,216.742,141.241,211.862,141.241z"/> <path style="fill:#00AAF0;" d="M176.552,203.034c-4.879,0-8.828-3.953-8.828-8.828v-26.483c0-4.875,3.948-8.828,8.828-8.828 c4.879,0,8.828,3.953,8.828,8.828v26.483C185.379,199.082,181.431,203.034,176.552,203.034z"/> <path style="fill:#00AAF0;" d="M176.552,141.241c-4.879,0-8.828-3.953-8.828-8.828v-26.483c0-4.875,3.948-8.828,8.828-8.828 c4.879,0,8.828,3.953,8.828,8.828v26.483C185.379,137.289,181.431,141.241,176.552,141.241z"/> <path style="fill:#00AAF0;" d="M247.172,476.69c-4.879,0-8.828-3.953-8.828-8.828v-26.483c0-4.875,3.948-8.828,8.828-8.828 c4.879,0,8.828,3.953,8.828,8.828v26.483C256,472.737,252.052,476.69,247.172,476.69z"/> <path style="fill:#00AAF0;" d="M247.172,414.897c-4.879,0-8.828-3.953-8.828-8.828v-26.483c0-4.875,3.948-8.828,8.828-8.828 c4.879,0,8.828,3.953,8.828,8.828v26.483C256,410.944,252.052,414.897,247.172,414.897z"/> <path style="fill:#00AAF0;" d="M211.862,476.69c-4.879,0-8.828-3.953-8.828-8.828v-26.483c0-4.875,3.948-8.828,8.828-8.828 c4.879,0,8.828,3.953,8.828,8.828v26.483C220.69,472.737,216.742,476.69,211.862,476.69z"/> <path style="fill:#00AAF0;" d="M211.862,414.897c-4.879,0-8.828-3.953-8.828-8.828v-26.483c0-4.875,3.948-8.828,8.828-8.828 c4.879,0,8.828,3.953,8.828,8.828v26.483C220.69,410.944,216.742,414.897,211.862,414.897z"/> <path style="fill:#00AAF0;" d="M176.552,476.69c-4.879,0-8.828-3.953-8.828-8.828v-26.483c0-4.875,3.948-8.828,8.828-8.828 c4.879,0,8.828,3.953,8.828,8.828v26.483C185.379,472.737,181.431,476.69,176.552,476.69z"/> <path style="fill:#00AAF0;" d="M176.552,414.897c-4.879,0-8.828-3.953-8.828-8.828v-26.483c0-4.875,3.948-8.828,8.828-8.828 c4.879,0,8.828,3.953,8.828,8.828v26.483C185.379,410.944,181.431,414.897,176.552,414.897z"/> </g> <path style="fill:#F1F4FB;" d="M300.138,388.414H8.828c-4.875,0-8.828-3.953-8.828-8.828V203.034c0-4.875,3.953-8.828,8.828-8.828 h291.31V388.414z"/> <g> <rect x="264.828" y="194.207" style="fill:#E4EAF8;" width="17.655" height="194.207"/> <ellipse style="fill:#E4EAF8;" cx="194.207" cy="291.31" rx="52.966" ry="61.793"/> </g> <path style="fill:#9BF57D;" d="M291.31,220.69H70.621c-4.879,0-8.828,3.953-8.828,8.828C61.793,244.12,49.913,256,35.31,256 c-4.879,0-8.828,3.953-8.828,8.828v52.966c0,4.875,3.948,8.828,8.828,8.828c14.603,0,26.483,11.88,26.483,26.483 c0,4.875,3.948,8.828,8.828,8.828h220.69v-17.655h-56.37C247.818,331.324,256,312.409,256,291.31 c0-21.099-8.182-40.013-21.059-52.965h56.37V220.69z M44.138,309.854v-37.086c17.267-3.518,30.905-17.155,34.422-34.422h74.913 c-12.877,12.951-21.059,31.865-21.059,52.964c0,21.099,8.182,40.013,21.059,52.966H78.56 C75.043,327.009,61.405,313.37,44.138,309.854z M238.345,291.31c0,29.207-19.801,52.966-44.138,52.966s-44.138-23.758-44.138-52.966 c0-29.207,19.801-52.965,44.138-52.965S238.345,262.103,238.345,291.31z"/> <path style="fill:#D5DCED;" d="M282.483,512V8.828c0-4.875,3.953-8.828,8.828-8.828h194.207c4.875,0,8.828,3.953,8.828,8.828V512"/> <rect x="282.483" y="300.138" style="fill:#C7CFE2;" width="211.862" height="211.862"/> <g> <circle style="fill:#8CE16E;" cx="88.276" cy="291.31" r="17.655"/> <path style="fill:#8CE16E;" d="M220.69,306.207c0-15.871-15.518-20.719-23.853-23.324c-11.457-3.582-11.457-5.319-11.518-6.134 c0.423-0.914,3.577-3.095,8.888-3.095c5.319,0,8.474,2.189,8.879,3.086c1.707,4.574,6.819,6.901,11.353,5.19 c4.569-1.703,6.897-6.784,5.198-11.353c-2.41-6.466-8.66-11.343-16.604-13.44V256c0-4.875-3.948-8.828-8.828-8.828 s-8.828,3.953-8.828,8.828v1.21c-10.359,2.754-17.655,10.166-17.655,19.203c0,15.871,15.518,20.719,23.853,23.324 c11.457,3.582,11.457,5.319,11.518,6.134c-0.423,0.913-3.577,3.094-8.888,3.094s-8.466-2.182-8.888-3.095 c-1.707-4.565-6.828-6.892-11.345-5.181c-4.569,1.703-6.897,6.784-5.198,11.353c2.41,6.466,8.66,11.343,16.604,13.44v1.138 c0,4.875,3.948,8.828,8.828,8.828s8.828-3.953,8.828-8.828v-1.21C213.394,322.657,220.69,315.244,220.69,306.207z"/> </g> <g> <path style="fill:#00C3FF;" d="M361.931,105.931h-35.31c-4.875,0-8.828-3.953-8.828-8.828V44.138c0-4.875,3.953-8.828,8.828-8.828 h35.31c4.875,0,8.828,3.953,8.828,8.828v52.966C370.759,101.978,366.806,105.931,361.931,105.931z"/> <path style="fill:#00C3FF;" d="M450.207,105.931h-35.31c-4.875,0-8.828-3.953-8.828-8.828V44.138c0-4.875,3.953-8.828,8.828-8.828 h35.31c4.875,0,8.828,3.953,8.828,8.828v52.966C459.034,101.978,455.082,105.931,450.207,105.931z"/> <path style="fill:#00C3FF;" d="M361.931,211.862h-35.31c-4.875,0-8.828-3.953-8.828-8.828v-52.966c0-4.875,3.953-8.828,8.828-8.828 h35.31c4.875,0,8.828,3.953,8.828,8.828v52.966C370.759,207.91,366.806,211.862,361.931,211.862z"/> <path style="fill:#00C3FF;" d="M450.207,211.862h-35.31c-4.875,0-8.828-3.953-8.828-8.828v-52.966c0-4.875,3.953-8.828,8.828-8.828 h35.31c4.875,0,8.828,3.953,8.828,8.828v52.966C459.034,207.91,455.082,211.862,450.207,211.862z"/> <path style="fill:#00C3FF;" d="M361.931,317.793h-35.31c-4.875,0-8.828-3.953-8.828-8.828V256c0-4.875,3.953-8.828,8.828-8.828 h35.31c4.875,0,8.828,3.953,8.828,8.828v52.966C370.759,313.841,366.806,317.793,361.931,317.793z"/> <path style="fill:#00C3FF;" d="M450.207,317.793h-35.31c-4.875,0-8.828-3.953-8.828-8.828V256c0-4.875,3.953-8.828,8.828-8.828 h35.31c4.875,0,8.828,3.953,8.828,8.828v52.966C459.034,313.841,455.082,317.793,450.207,317.793z"/> <path style="fill:#00C3FF;" d="M317.793,512V361.931c0-4.875,3.953-8.828,8.828-8.828h35.31c4.875,0,8.828,3.953,8.828,8.828V512"/> </g> <g> <path style="fill:#00AAF0;" d="M361.931,35.31h-35.31c-4.875,0-8.828,3.953-8.828,8.828v17.655c0-4.875,3.953-8.828,8.828-8.828 h35.31c4.875,0,8.828,3.953,8.828,8.828V44.138C370.759,39.263,366.806,35.31,361.931,35.31z"/> <path style="fill:#00AAF0;" d="M450.207,35.31h-35.31c-4.875,0-8.828,3.953-8.828,8.828v17.655c0-4.875,3.953-8.828,8.828-8.828 h35.31c4.875,0,8.828,3.953,8.828,8.828V44.138C459.034,39.263,455.082,35.31,450.207,35.31z"/> <path style="fill:#00AAF0;" d="M361.931,141.241h-35.31c-4.875,0-8.828,3.953-8.828,8.828v17.655c0-4.875,3.953-8.828,8.828-8.828 h35.31c4.875,0,8.828,3.953,8.828,8.828v-17.655C370.759,145.194,366.806,141.241,361.931,141.241z"/> <path style="fill:#00AAF0;" d="M450.207,141.241h-35.31c-4.875,0-8.828,3.953-8.828,8.828v17.655c0-4.875,3.953-8.828,8.828-8.828 h35.31c4.875,0,8.828,3.953,8.828,8.828v-17.655C459.034,145.194,455.082,141.241,450.207,141.241z"/> <path style="fill:#00AAF0;" d="M361.931,247.172h-35.31c-4.875,0-8.828,3.953-8.828,8.828v17.655c0-4.875,3.953-8.828,8.828-8.828 h35.31c4.875,0,8.828,3.953,8.828,8.828V256C370.759,251.125,366.806,247.172,361.931,247.172z"/> <path style="fill:#00AAF0;" d="M361.931,353.103h-35.31c-4.875,0-8.828,3.953-8.828,8.828v17.655c0-4.875,3.953-8.828,8.828-8.828 h35.31c4.875,0,8.828,3.953,8.828,8.828v-17.655C370.759,357.056,366.806,353.103,361.931,353.103z"/> <path style="fill:#00AAF0;" d="M450.207,247.172h-35.31c-4.875,0-8.828,3.953-8.828,8.828v17.655c0-4.875,3.953-8.828,8.828-8.828 h35.31c4.875,0,8.828,3.953,8.828,8.828V256C459.034,251.125,455.082,247.172,450.207,247.172z"/> </g> <rect x="317.793" y="414.897" style="fill:#AFB9D2;" width="52.966" height="17.655"/> <rect x="317.793" y="432.552" style="fill:#00AAF0;" width="52.966" height="17.655"/> <path style="fill:#00C3FF;" d="M406.069,512V361.931c0-4.875,3.953-8.828,8.828-8.828h35.31c4.875,0,8.828,3.953,8.828,8.828V512"/> <path style="fill:#00AAF0;" d="M450.207,353.103h-35.31c-4.875,0-8.828,3.953-8.828,8.828v17.655c0-4.875,3.953-8.828,8.828-8.828 h35.31c4.875,0,8.828,3.953,8.828,8.828v-17.655C459.034,357.056,455.082,353.103,450.207,353.103z"/> <rect x="406.069" y="414.897" style="fill:#AFB9D2;" width="52.966" height="17.655"/> <rect x="406.069" y="432.552" style="fill:#00AAF0;" width="52.966" height="17.655"/> <g> <circle style="fill:#9BF57D;" cx="35.31" cy="229.517" r="13.241"/> <circle style="fill:#9BF57D;" cx="35.31" cy="353.103" r="13.241"/> </g> <g> <rect x="264.828" y="220.69" style="fill:#8CE16E;" width="17.655" height="17.655"/> <rect x="264.828" y="344.276" style="fill:#8CE16E;" width="17.655" height="17.655"/> </g> <path style="fill:#959CB5;" d="M503.172,512H132.414c-4.879,0-8.828-3.953-8.828-8.828c0-4.875,3.948-8.828,8.828-8.828h370.759 c4.879,0,8.828,3.953,8.828,8.828C512,508.047,508.052,512,503.172,512z"/> </g>
</svg>